<mxfile host="Electron" agent="Mozilla/5.0 (Windows NT 10.0; Win64; x64) AppleWebKit/537.36 (KHTML, like Gecko) draw.io/26.0.16 Chrome/132.0.6834.196 Electron/34.2.0 Safari/537.36" version="26.0.16">
  <diagram name="Page-1" id="srrDwHK8Fc0FGXfFMyzu">
    <mxGraphModel dx="2607" dy="1607" grid="1" gridSize="10" guides="1" tooltips="1" connect="1" arrows="1" fold="1" page="1" pageScale="1" pageWidth="1654" pageHeight="1169" math="0" shadow="0">
      <root>
        <mxCell id="0" />
        <mxCell id="1" parent="0" />
        <mxCell id="koIK7alW1g3D1J8-F5n0-1" value="High Level Architecture" style="text;strokeColor=none;fillColor=none;html=1;align=left;verticalAlign=middle;whiteSpace=wrap;rounded=0;fontSize=30;fontFamily=Helvetica;fontStyle=1" parent="1" vertex="1">
          <mxGeometry x="89" y="111" width="410" height="30" as="geometry" />
        </mxCell>
        <mxCell id="pPCsq5DY9bUPXMMZWvm_-1" value="" style="rounded=0;whiteSpace=wrap;html=1;fillColor=none;dashed=1;strokeColor=#B3B3B3;strokeWidth=2;glass=0;shadow=0;" parent="1" vertex="1">
          <mxGeometry x="89" y="247" width="240" height="750" as="geometry" />
        </mxCell>
        <mxCell id="pPCsq5DY9bUPXMMZWvm_-2" value="&lt;font style=&quot;font-size: 24px;&quot;&gt;Sources&lt;/font&gt;" style="rounded=0;whiteSpace=wrap;html=1;fillColor=default;strokeColor=none;fontStyle=1" parent="1" vertex="1">
          <mxGeometry x="149" y="227" width="120" height="40" as="geometry" />
        </mxCell>
        <mxCell id="pPCsq5DY9bUPXMMZWvm_-3" value="" style="rounded=0;whiteSpace=wrap;html=1;fillColor=none;dashed=1;strokeColor=#B3B3B3;strokeWidth=2;glass=0;shadow=0;" parent="1" vertex="1">
          <mxGeometry x="409" y="247" width="840" height="750" as="geometry" />
        </mxCell>
        <mxCell id="pPCsq5DY9bUPXMMZWvm_-4" value="&lt;font style=&quot;font-size: 24px;&quot;&gt;Data Warehouse&lt;/font&gt;" style="rounded=0;whiteSpace=wrap;html=1;fillColor=default;strokeColor=none;fontStyle=1" parent="1" vertex="1">
          <mxGeometry x="731" y="227" width="210" height="40" as="geometry" />
        </mxCell>
        <mxCell id="pPCsq5DY9bUPXMMZWvm_-5" value="" style="rounded=0;whiteSpace=wrap;html=1;fillColor=none;dashed=1;strokeColor=#B3B3B3;strokeWidth=2;glass=0;shadow=0;" parent="1" vertex="1">
          <mxGeometry x="1329" y="247" width="240" height="750" as="geometry" />
        </mxCell>
        <mxCell id="pPCsq5DY9bUPXMMZWvm_-6" value="&lt;font style=&quot;font-size: 24px;&quot;&gt;Consume&lt;/font&gt;" style="rounded=0;whiteSpace=wrap;html=1;fillColor=default;strokeColor=none;fontStyle=1" parent="1" vertex="1">
          <mxGeometry x="1389" y="227" width="120" height="40" as="geometry" />
        </mxCell>
        <mxCell id="pPCsq5DY9bUPXMMZWvm_-7" value="&lt;font style=&quot;font-size: 20px;&quot;&gt;Bronze Layer&lt;/font&gt;" style="rounded=0;whiteSpace=wrap;html=1;fontStyle=1;fillColor=#ffe6cc;strokeColor=#d79b00;strokeWidth=3;" parent="1" vertex="1">
          <mxGeometry x="449" y="287" width="200" height="40" as="geometry" />
        </mxCell>
        <mxCell id="pPCsq5DY9bUPXMMZWvm_-8" value="" style="rounded=0;whiteSpace=wrap;html=1;fontStyle=1;fillColor=none;strokeColor=#d79b00;strokeWidth=3;" parent="1" vertex="1">
          <mxGeometry x="449" y="337" width="200" height="640" as="geometry" />
        </mxCell>
        <mxCell id="pPCsq5DY9bUPXMMZWvm_-9" value="&lt;font style=&quot;font-size: 20px;&quot;&gt;Silver Layer&lt;/font&gt;" style="rounded=0;whiteSpace=wrap;html=1;fontStyle=1;fillColor=#f5f5f5;strokeColor=#666666;strokeWidth=3;fontColor=#333333;" parent="1" vertex="1">
          <mxGeometry x="729" y="287" width="200" height="40" as="geometry" />
        </mxCell>
        <mxCell id="pPCsq5DY9bUPXMMZWvm_-10" value="" style="rounded=0;whiteSpace=wrap;html=1;fontStyle=1;fillColor=none;strokeColor=#666666;strokeWidth=3;fontColor=#333333;" parent="1" vertex="1">
          <mxGeometry x="729" y="337" width="200" height="640" as="geometry" />
        </mxCell>
        <mxCell id="pPCsq5DY9bUPXMMZWvm_-11" value="&lt;font style=&quot;font-size: 20px;&quot;&gt;Gold Layer&lt;/font&gt;" style="rounded=0;whiteSpace=wrap;html=1;fontStyle=1;fillColor=#e3c800;strokeColor=#B09500;strokeWidth=3;fontColor=#000000;" parent="1" vertex="1">
          <mxGeometry x="1009" y="287" width="200" height="40" as="geometry" />
        </mxCell>
        <mxCell id="pPCsq5DY9bUPXMMZWvm_-12" value="" style="rounded=0;whiteSpace=wrap;html=1;fontStyle=1;fillColor=none;strokeColor=#B09500;strokeWidth=3;fontColor=#000000;" parent="1" vertex="1">
          <mxGeometry x="1009" y="337" width="200" height="640" as="geometry" />
        </mxCell>
        <mxCell id="pPCsq5DY9bUPXMMZWvm_-13" value="&lt;font style=&quot;font-size: 18px;&quot;&gt;&lt;b&gt;CRM&lt;/b&gt;&lt;/font&gt;" style="sketch=0;pointerEvents=1;shadow=0;dashed=0;html=1;strokeColor=none;labelPosition=center;verticalLabelPosition=bottom;verticalAlign=top;outlineConnect=0;align=center;shape=mxgraph.office.concepts.folder;fillColor=#7FBA42;" parent="1" vertex="1">
          <mxGeometry x="164.73" y="369" width="95" height="80" as="geometry" />
        </mxCell>
        <mxCell id="pPCsq5DY9bUPXMMZWvm_-14" value="" style="image;aspect=fixed;html=1;points=[];align=center;fontSize=12;image=img/lib/azure2/general/File.svg;" parent="1" vertex="1">
          <mxGeometry x="238.73" y="415" width="32.46" height="40" as="geometry" />
        </mxCell>
        <mxCell id="pPCsq5DY9bUPXMMZWvm_-15" value="&lt;font style=&quot;font-size: 18px;&quot;&gt;&lt;b&gt;ERP&lt;/b&gt;&lt;/font&gt;" style="sketch=0;pointerEvents=1;shadow=0;dashed=0;html=1;strokeColor=none;labelPosition=center;verticalLabelPosition=bottom;verticalAlign=top;outlineConnect=0;align=center;shape=mxgraph.office.concepts.folder;fillColor=#7FBA42;" parent="1" vertex="1">
          <mxGeometry x="159" y="539" width="95" height="80" as="geometry" />
        </mxCell>
        <mxCell id="pPCsq5DY9bUPXMMZWvm_-16" value="" style="image;aspect=fixed;html=1;points=[];align=center;fontSize=12;image=img/lib/azure2/general/File.svg;" parent="1" vertex="1">
          <mxGeometry x="233" y="585" width="32.46" height="40" as="geometry" />
        </mxCell>
        <mxCell id="pPCsq5DY9bUPXMMZWvm_-18" value="" style="endArrow=none;html=1;rounded=0;startArrow=none;startFill=0;fillColor=#f5f5f5;strokeColor=#666666;exitX=0.125;exitY=0.779;exitDx=0;exitDy=0;exitPerimeter=0;entryX=0.875;entryY=0.779;entryDx=0;entryDy=0;entryPerimeter=0;" parent="1" edge="1">
          <mxGeometry width="50" height="50" relative="1" as="geometry">
            <mxPoint x="119" y="686.72" as="sourcePoint" />
            <mxPoint x="299" y="686.72" as="targetPoint" />
          </mxGeometry>
        </mxCell>
        <mxCell id="pPCsq5DY9bUPXMMZWvm_-19" value="&lt;b&gt;Object Type:&lt;/b&gt; CSV Files&lt;div&gt;&lt;br&gt;&lt;div&gt;&lt;b&gt;Interface:&lt;/b&gt; Files in Folder&lt;/div&gt;&lt;/div&gt;" style="text;html=1;align=center;verticalAlign=top;whiteSpace=wrap;rounded=0;fontSize=16;" parent="1" vertex="1">
          <mxGeometry x="109" y="691" width="200" height="86" as="geometry" />
        </mxCell>
        <mxCell id="pPCsq5DY9bUPXMMZWvm_-22" value="" style="html=1;verticalLabelPosition=bottom;align=center;labelBackgroundColor=#ffffff;verticalAlign=top;strokeWidth=2;strokeColor=#B09500;shadow=0;dashed=0;shape=mxgraph.ios7.icons.data;fillColor=#e3c800;fontColor=#000000;" parent="1" vertex="1">
          <mxGeometry x="1071.5" y="459" width="75" height="100" as="geometry" />
        </mxCell>
        <mxCell id="pPCsq5DY9bUPXMMZWvm_-23" value="" style="shape=flexArrow;endArrow=classic;html=1;rounded=0;exitX=1;exitY=0.412;exitDx=0;exitDy=0;exitPerimeter=0;endWidth=23.529411764705884;endSize=10.176470588235295;width=20;fillColor=#b1ddf0;strokeColor=#10739e;" parent="1" edge="1">
          <mxGeometry width="50" height="50" relative="1" as="geometry">
            <mxPoint x="319" y="508.1600000000001" as="sourcePoint" />
            <mxPoint x="464" y="508" as="targetPoint" />
            <Array as="points">
              <mxPoint x="359" y="508" />
            </Array>
          </mxGeometry>
        </mxCell>
        <mxCell id="pPCsq5DY9bUPXMMZWvm_-24" value="" style="shape=flexArrow;endArrow=classic;html=1;rounded=0;exitX=1;exitY=0.412;exitDx=0;exitDy=0;exitPerimeter=0;endWidth=23.529411764705884;endSize=10.176470588235295;width=20;fillColor=#b1ddf0;strokeColor=#10739e;" parent="1" edge="1">
          <mxGeometry width="50" height="50" relative="1" as="geometry">
            <mxPoint x="619" y="508.5700000000001" as="sourcePoint" />
            <mxPoint x="764" y="508.41" as="targetPoint" />
            <Array as="points">
              <mxPoint x="659" y="508.41" />
            </Array>
          </mxGeometry>
        </mxCell>
        <mxCell id="pPCsq5DY9bUPXMMZWvm_-25" value="" style="shape=flexArrow;endArrow=classic;html=1;rounded=0;exitX=1;exitY=0.412;exitDx=0;exitDy=0;exitPerimeter=0;endWidth=23.529411764705884;endSize=10.176470588235295;width=20;fillColor=#b1ddf0;strokeColor=#10739e;" parent="1" edge="1">
          <mxGeometry width="50" height="50" relative="1" as="geometry">
            <mxPoint x="899" y="508.5700000000001" as="sourcePoint" />
            <mxPoint x="1044" y="508.41" as="targetPoint" />
            <Array as="points">
              <mxPoint x="939" y="508.41" />
            </Array>
          </mxGeometry>
        </mxCell>
        <mxCell id="pPCsq5DY9bUPXMMZWvm_-26" value="" style="shape=flexArrow;endArrow=classic;html=1;rounded=0;exitX=1;exitY=0.412;exitDx=0;exitDy=0;exitPerimeter=0;endWidth=23.529411764705884;endSize=10.176470588235295;width=20;fillColor=#b1ddf0;strokeColor=#10739e;" parent="1" edge="1">
          <mxGeometry width="50" height="50" relative="1" as="geometry">
            <mxPoint x="1199" y="508.5700000000001" as="sourcePoint" />
            <mxPoint x="1344" y="508.41" as="targetPoint" />
            <Array as="points">
              <mxPoint x="1239" y="508.41" />
            </Array>
          </mxGeometry>
        </mxCell>
        <mxCell id="pPCsq5DY9bUPXMMZWvm_-27" value="" style="html=1;verticalLabelPosition=bottom;align=center;labelBackgroundColor=#ffffff;verticalAlign=top;strokeWidth=2;strokeColor=#666666;shadow=0;dashed=0;shape=mxgraph.ios7.icons.data;fillColor=#f5f5f5;fontColor=#333333;" parent="1" vertex="1">
          <mxGeometry x="791.5" y="459" width="75" height="100" as="geometry" />
        </mxCell>
        <mxCell id="pPCsq5DY9bUPXMMZWvm_-28" value="" style="html=1;verticalLabelPosition=bottom;align=center;labelBackgroundColor=#ffffff;verticalAlign=top;strokeWidth=2;strokeColor=#d79b00;shadow=0;dashed=0;shape=mxgraph.ios7.icons.data;fillColor=#ffe6cc;" parent="1" vertex="1">
          <mxGeometry x="511.5" y="459" width="75" height="100" as="geometry" />
        </mxCell>
        <mxCell id="pPCsq5DY9bUPXMMZWvm_-29" value="&lt;font style=&quot;font-size: 16px;&quot;&gt;Raw Data&lt;/font&gt;" style="text;html=1;align=center;verticalAlign=middle;whiteSpace=wrap;rounded=0;" parent="1" vertex="1">
          <mxGeometry x="499" y="559" width="100" height="48" as="geometry" />
        </mxCell>
        <mxCell id="pPCsq5DY9bUPXMMZWvm_-30" value="&lt;font style=&quot;font-size: 16px;&quot;&gt;Cleaned, Standardized Data&lt;/font&gt;" style="text;html=1;align=center;verticalAlign=middle;whiteSpace=wrap;rounded=0;" parent="1" vertex="1">
          <mxGeometry x="739" y="563" width="180" height="48" as="geometry" />
        </mxCell>
        <mxCell id="pPCsq5DY9bUPXMMZWvm_-31" value="&lt;font style=&quot;font-size: 16px;&quot;&gt;Business-Ready Data&lt;/font&gt;" style="text;html=1;align=center;verticalAlign=middle;whiteSpace=wrap;rounded=0;" parent="1" vertex="1">
          <mxGeometry x="1029" y="563" width="160" height="48" as="geometry" />
        </mxCell>
        <mxCell id="pPCsq5DY9bUPXMMZWvm_-32" value="" style="endArrow=none;html=1;rounded=0;startArrow=none;startFill=0;fillColor=#ffe6cc;strokeColor=#d79b00;exitX=0.125;exitY=0.779;exitDx=0;exitDy=0;exitPerimeter=0;entryX=0.875;entryY=0.779;entryDx=0;entryDy=0;entryPerimeter=0;" parent="1" edge="1">
          <mxGeometry width="50" height="50" relative="1" as="geometry">
            <mxPoint x="459" y="607" as="sourcePoint" />
            <mxPoint x="639" y="607" as="targetPoint" />
          </mxGeometry>
        </mxCell>
        <mxCell id="pPCsq5DY9bUPXMMZWvm_-33" value="&lt;b&gt;Object Type:&lt;/b&gt; Table&lt;div&gt;&lt;br&gt;&lt;div&gt;&lt;b&gt;Load:&lt;/b&gt;&lt;/div&gt;&lt;div&gt;&lt;ul&gt;&lt;li&gt;&lt;font style=&quot;font-size: 15px;&quot;&gt;Batch Processing&lt;/font&gt;&lt;/li&gt;&lt;li&gt;&lt;font style=&quot;font-size: 15px;&quot;&gt;Full Load&lt;/font&gt;&lt;/li&gt;&lt;li&gt;&lt;font style=&quot;font-size: 15px;&quot;&gt;Truncate &amp;amp; Insert&lt;/font&gt;&lt;/li&gt;&lt;/ul&gt;&lt;/div&gt;&lt;div&gt;&lt;b&gt;&lt;br&gt;&lt;/b&gt;&lt;/div&gt;&lt;div&gt;&lt;b&gt;No Transformations&lt;/b&gt;&lt;/div&gt;&lt;div&gt;&lt;b&gt;&lt;br&gt;&lt;/b&gt;&lt;/div&gt;&lt;div&gt;&lt;b&gt;Data Model: &lt;/b&gt;None (as-is)&lt;/div&gt;&lt;/div&gt;" style="text;html=1;align=left;verticalAlign=top;whiteSpace=wrap;rounded=0;fontSize=16;" parent="1" vertex="1">
          <mxGeometry x="457" y="611.28" width="185" height="250" as="geometry" />
        </mxCell>
        <mxCell id="pPCsq5DY9bUPXMMZWvm_-34" value="" style="endArrow=none;html=1;rounded=0;startArrow=none;startFill=0;fillColor=#f5f5f5;strokeColor=#666666;exitX=0.125;exitY=0.779;exitDx=0;exitDy=0;exitPerimeter=0;entryX=0.875;entryY=0.779;entryDx=0;entryDy=0;entryPerimeter=0;" parent="1" edge="1">
          <mxGeometry width="50" height="50" relative="1" as="geometry">
            <mxPoint x="739" y="607.14" as="sourcePoint" />
            <mxPoint x="919" y="607.14" as="targetPoint" />
          </mxGeometry>
        </mxCell>
        <mxCell id="pPCsq5DY9bUPXMMZWvm_-36" value="" style="endArrow=none;html=1;rounded=0;startArrow=none;startFill=0;fillColor=#e3c800;strokeColor=#B09500;exitX=0.125;exitY=0.779;exitDx=0;exitDy=0;exitPerimeter=0;entryX=0.875;entryY=0.779;entryDx=0;entryDy=0;entryPerimeter=0;" parent="1" edge="1">
          <mxGeometry width="50" height="50" relative="1" as="geometry">
            <mxPoint x="1019" y="607.14" as="sourcePoint" />
            <mxPoint x="1199" y="607.14" as="targetPoint" />
          </mxGeometry>
        </mxCell>
        <mxCell id="pPCsq5DY9bUPXMMZWvm_-38" value="&lt;b&gt;Object Type:&lt;/b&gt; Table&lt;div&gt;&lt;br&gt;&lt;div&gt;&lt;b&gt;Load:&lt;/b&gt;&lt;/div&gt;&lt;div&gt;&lt;ul&gt;&lt;li&gt;&lt;font style=&quot;font-size: 15px;&quot;&gt;Batch Processing&lt;/font&gt;&lt;/li&gt;&lt;li&gt;&lt;font style=&quot;font-size: 15px;&quot;&gt;Full Load&lt;/font&gt;&lt;/li&gt;&lt;li&gt;&lt;font style=&quot;font-size: 15px;&quot;&gt;Truncate &amp;amp; Insert&lt;/font&gt;&lt;/li&gt;&lt;/ul&gt;&lt;/div&gt;&lt;div&gt;&lt;b style=&quot;background-color: transparent; color: light-dark(rgb(0, 0, 0), rgb(255, 255, 255));&quot;&gt;Transformations:&lt;/b&gt;&lt;/div&gt;&lt;div&gt;&lt;ul&gt;&lt;li&gt;&lt;font style=&quot;font-size: 15px;&quot;&gt;Data Cleansing&lt;/font&gt;&lt;/li&gt;&lt;li&gt;&lt;font style=&quot;font-size: 15px;&quot;&gt;Data Standardization&lt;/font&gt;&lt;/li&gt;&lt;li&gt;&lt;font style=&quot;font-size: 15px;&quot;&gt;Data Normalization&lt;/font&gt;&lt;/li&gt;&lt;li&gt;&lt;font style=&quot;font-size: 15px;&quot;&gt;Derived Columns&lt;/font&gt;&lt;/li&gt;&lt;li&gt;&lt;font style=&quot;font-size: 15px;&quot;&gt;Data Enrichment&lt;/font&gt;&lt;span style=&quot;font-weight: bold; white-space: pre;&quot;&gt;&#x9;&lt;/span&gt;&lt;/li&gt;&lt;/ul&gt;&lt;/div&gt;&lt;div&gt;&lt;b style=&quot;background-color: transparent; color: light-dark(rgb(0, 0, 0), rgb(255, 255, 255));&quot;&gt;Data Model: &lt;/b&gt;&lt;span style=&quot;background-color: transparent; color: light-dark(rgb(0, 0, 0), rgb(255, 255, 255));&quot;&gt;None (as-is)&lt;/span&gt;&lt;/div&gt;&lt;/div&gt;" style="text;html=1;align=left;verticalAlign=top;whiteSpace=wrap;rounded=0;fontSize=16;" parent="1" vertex="1">
          <mxGeometry x="736" y="611.28" width="185" height="355.72" as="geometry" />
        </mxCell>
        <mxCell id="pPCsq5DY9bUPXMMZWvm_-39" value="&lt;b&gt;Object Type:&lt;/b&gt; Table&lt;div&gt;&lt;br&gt;&lt;div&gt;&lt;b&gt;No Load&lt;/b&gt;&lt;/div&gt;&lt;div&gt;&lt;b&gt;&lt;br&gt;&lt;/b&gt;&lt;/div&gt;&lt;div&gt;&lt;b style=&quot;background-color: transparent; color: light-dark(rgb(0, 0, 0), rgb(255, 255, 255));&quot;&gt;Transformations&lt;/b&gt;&lt;/div&gt;&lt;/div&gt;&lt;div&gt;&lt;div&gt;&lt;ul&gt;&lt;li&gt;&lt;font style=&quot;font-size: 15px;&quot;&gt;Data Integrations&lt;/font&gt;&lt;/li&gt;&lt;li&gt;&lt;font style=&quot;font-size: 15px;&quot;&gt;Aggregations&lt;/font&gt;&lt;/li&gt;&lt;li&gt;&lt;font style=&quot;font-size: 15px;&quot;&gt;Business Logics&lt;/font&gt;&lt;/li&gt;&lt;/ul&gt;&lt;/div&gt;&lt;div&gt;&lt;b style=&quot;background-color: transparent; color: light-dark(rgb(0, 0, 0), rgb(255, 255, 255));&quot;&gt;Data Model:&lt;/b&gt;&lt;/div&gt;&lt;/div&gt;&lt;div&gt;&lt;ul&gt;&lt;li&gt;&lt;span style=&quot;background-color: transparent; color: light-dark(rgb(0, 0, 0), rgb(255, 255, 255));&quot;&gt;&lt;font style=&quot;font-size: 15px;&quot;&gt;Star Schema&lt;/font&gt;&lt;/span&gt;&lt;/li&gt;&lt;li&gt;&lt;span style=&quot;background-color: transparent; color: light-dark(rgb(0, 0, 0), rgb(255, 255, 255));&quot;&gt;&lt;font style=&quot;font-size: 15px;&quot;&gt;Aggregated Table&lt;/font&gt;&lt;/span&gt;&lt;/li&gt;&lt;li&gt;&lt;span style=&quot;background-color: transparent; color: light-dark(rgb(0, 0, 0), rgb(255, 255, 255));&quot;&gt;&lt;font style=&quot;font-size: 15px;&quot;&gt;Flat Tables&lt;/font&gt;&lt;/span&gt;&lt;/li&gt;&lt;/ul&gt;&lt;/div&gt;" style="text;html=1;align=left;verticalAlign=top;whiteSpace=wrap;rounded=0;fontSize=16;" parent="1" vertex="1">
          <mxGeometry x="1017" y="611.28" width="185" height="355.72" as="geometry" />
        </mxCell>
        <mxCell id="pPCsq5DY9bUPXMMZWvm_-40" value="" style="image;aspect=fixed;html=1;points=[];align=center;fontSize=12;image=img/lib/azure2/analytics/Power_BI_Embedded.svg;" parent="1" vertex="1">
          <mxGeometry x="1387.5" y="367" width="51" height="68" as="geometry" />
        </mxCell>
        <mxCell id="pPCsq5DY9bUPXMMZWvm_-41" value="" style="sketch=0;points=[[0,0,0],[0.25,0,0],[0.5,0,0],[0.75,0,0],[1,0,0],[0,1,0],[0.25,1,0],[0.5,1,0],[0.75,1,0],[1,1,0],[0,0.25,0],[0,0.5,0],[0,0.75,0],[1,0.25,0],[1,0.5,0],[1,0.75,0]];outlineConnect=0;fontColor=#232F3E;fillColor=#01A88D;strokeColor=#ffffff;dashed=0;verticalLabelPosition=bottom;verticalAlign=top;align=center;html=1;fontSize=12;fontStyle=0;aspect=fixed;shape=mxgraph.aws4.resourceIcon;resIcon=mxgraph.aws4.machine_learning;" parent="1" vertex="1">
          <mxGeometry x="1410" y="767" width="78" height="78" as="geometry" />
        </mxCell>
        <mxCell id="pPCsq5DY9bUPXMMZWvm_-42" value="" style="shadow=0;dashed=0;html=1;strokeColor=none;fillColor=#4495D1;labelPosition=center;verticalLabelPosition=bottom;verticalAlign=top;align=center;outlineConnect=0;shape=mxgraph.veeam.magnifying_glass;pointerEvents=1;" parent="1" vertex="1">
          <mxGeometry x="1390.5" y="564.6" width="55.2" height="54.4" as="geometry" />
        </mxCell>
        <mxCell id="pPCsq5DY9bUPXMMZWvm_-43" value="&lt;font style=&quot;font-size: 16px;&quot;&gt;BI &amp;amp; Reporting&lt;/font&gt;" style="text;html=1;align=center;verticalAlign=middle;whiteSpace=wrap;rounded=0;" parent="1" vertex="1">
          <mxGeometry x="1369" y="435" width="160" height="48" as="geometry" />
        </mxCell>
        <mxCell id="pPCsq5DY9bUPXMMZWvm_-44" value="&lt;font style=&quot;font-size: 16px;&quot;&gt;Ad-Hoc&lt;/font&gt;&lt;div&gt;&lt;font style=&quot;font-size: 16px;&quot;&gt;SQL Queries&lt;/font&gt;&lt;/div&gt;" style="text;html=1;align=center;verticalAlign=middle;whiteSpace=wrap;rounded=0;" parent="1" vertex="1">
          <mxGeometry x="1371.1" y="619" width="160" height="48" as="geometry" />
        </mxCell>
        <mxCell id="pPCsq5DY9bUPXMMZWvm_-45" value="&lt;span style=&quot;font-size: 16px;&quot;&gt;Machine Learning&lt;/span&gt;" style="text;html=1;align=center;verticalAlign=middle;whiteSpace=wrap;rounded=0;" parent="1" vertex="1">
          <mxGeometry x="1371.1" y="845" width="160" height="48" as="geometry" />
        </mxCell>
        <mxCell id="pPCsq5DY9bUPXMMZWvm_-46" value="" style="shape=image;verticalLabelPosition=bottom;labelBackgroundColor=default;verticalAlign=top;aspect=fixed;imageAspect=0;image=data:image/png,iVBORw0KGgoAAAANSUhEUgAAAIAAAACACAYAAADDPmHLAAAABHNCSVQICAgIfAhkiAAAAAlwSFlzAAADsQAAA7EB9YPtSQAAABl0RVh0U29mdHdhcmUAd3d3Lmlua3NjYXBlLm9yZ5vuPBoAACAASURBVHic7Z13fFVF+v8/z8yccxNIAoSU24AAEZFIE6SFQIDQm6CgLioqigXLuq51f6u4rq6rfgF1WcWOqOvSVJpIC1W6ihCKoQnJvTeEXkJu7j3z/P5IwoaQBAsBQ+779eIFnKnPneecec4zz5kBQoQIESJEiBAhQoQIESJEiBAhQoQIESJEiOrHnj0H7J7Dh+tf6n5cDMSl7sDviYyMjMTdu3e/JqV/tygo+OOl7s/FgC51B34PrNm4sUOYVH8xTKO/aZh+wzQ2mobZwOGwNyAifan7V5lU6yfAkiVLWq5YtWoqBa3VGuzQFh7R2qp36uTJ7lprW25ubqdL3cfKRl3qDlwKvvhibnPTpl7SGn20xZ9DcatrWrXaVDLP/v37P9Va3wlg5SXq5kWhWinABx98UDsiIvI5RvB+1mKTZaFTWpfOa8vJPlFrXn/8+PHHoqKiDl3Ujl5Eqo0N8N57H9xumOY/TdOIMwyVbRo2aRjGJtM01xqGucUwxI7IyMjdSUlJJ4vLZGVlvWia5rG4uLh/Xsq+VyaXvQK8NGlSrVqa31WGOdQ01MuGzWxhKrOFaaouhmE0MGy2bqYyuhum0c40TNMwjALTNA8ZhnnYZjPylTLj4uNjryAi/6WWpTK4rI3Af7z6ahtbXv5GS/MN2tL3jBx521NsWbdoaL+l+UshxNa07t2f7dIlJeV4eHh0MIhOGvygZekZGnq3ZVmW1lb0oUOHRl9qWSqLy/YJ8MHYsWGnjh+fYcXG9RERkTtMU7W955578gDgk+nTrwgXKt00jWNhYbaBaWlpu0uXz8zMjFLKfM4w1QjTMAq01lfa7fZTF1+SyuWyVQAASE9NVacMvCQl3Xg6ziWtutGbyDT/HWjV5oRSZjPTZr5sGqbfMMyRaWnd5gDAhg0bahk22+02w3zMMNQKm832mFLmfaap8qKjo1+41DJdaC5rBShmUfI1KZLEVEi5LRgVJZQVbKrDaxrsdIezs144OV0wHM7PVc1In81mpEnDNk2JsPebN79iFwBkZGSYdrt9oVJqVK1atXZeankuJNVCAQBgZXJrpyXVNIAmdl2+7tOV3ToMIvCXDHiFEFECHK5rRh4TdvtJqhm5TWRufSesW7/8iLTeubbY2KBSKs5ms90XFRU1mIj4Ustzoag2CgAAC9Pa1AoPqFlC4JNO6Wvf/qZbh6+IsLbjkjVjVyYnR6qwYD2CaEQCrQnoSFL2AFiJyNrHVVz8CZvDdbzAmz3ZvzNzccHx4LZOq1efvtQy/VaqlQIAwNe9WtSMDNZYQIzXQDgtJP2j/cLVV5fOx2Mhvl3d6c8EegKABeAbEAwAkSBqAGY7gH0EbGbGZmbawEQb2n69wnuxZfotVDsFAIDlfVNizYLgYsG4F5IWC+LWbRes3l6cvqFXx6ZCiHeJ6AhJ615oOUlqerr5/BU/FOdJT01VdWyBKyGoPQEdNNAejCQAPgZvAHg5WVjSKvmbH2gsfrcLStVSAQBgQ1rH5iCaAaLTYJ7cduE34wDguz6d7wdhLBEebTVv5RQA+L5fyvuSaE7zuctnllff5v5dOlnMrwDsIKYozRwOoAYzHwSQzuCvhN/8vPXSpUcvjoQ/j8vaEVQRbRet3kxE7xChhZCUymMhvu/X+S0i/MWQ6Fk8+ACgiA4QUWJZ9WQMSk3cMqDLLABTBPCOZmovgA1m5JE6UoiuJGkiiOwEekvbAr4NvTp9sb5Xp5s29WpR86IJWwHVajGoNLtqOcclnvCOJELKpjWdPyRBQ4mo49Vzlm8umY+IDpBA05LXMoYlmfDHPk3MDxLE+PBTGN5w6dL8rQO69Asy70uallEAYHnRn7EbBrapIQts3ZjoD5r5vQKOCKzv2eEtEsZrl9JuqNYKMHzaNGtTv5RnAUwnwq1E+FpLq6B0PiLkEmhA8f+3Dkm9WhRgCginhGFc22TGot3/y0t9BLCpdB1tZ2/MAzAXwNyVg5Ijw0/z9RbErWwFd63t0ekTFtbLHRauzawkUcul2k4BxbSYt2ImgJ+ICETUW7HavnVg14ytg7o8nzGoS2sAICEOCFE4BWQO6XanYlorBKZfacZ2LTn4DBAEDTJILK6ozc6zVp0I6uBsQfQREX4g4rugxZbV3Tq8sGFgmxqVKnApqq0RWJLN/bq+SJJvJ2AyEfUhUMtCfQAItIeINgI8lEi8C/CN0Lg58YslX5WuZ8fgHimANeXKL5cmlNXO9kHJkfkBGqaZRwDowkynmHmuxfwDwA+w5nDWOK6hH0xOXze3suUGQk8AAICQNI9ASJq9/Klms5a1ZmW5BOEOAfovEdUiwg2CSBDxaEG0HArHyqxH6AdIiI9LX8/o3zVly4AukwOW8AqivwsSPwqIAWFRR+JOFBgjBWEwNO7TippAYi6R+GJlt/aTv74IhmLoCQBgU69eNY0wf26zWcvOevzuHJaaSJaYT0SRRIgDUPhYKOQ7QD+fMG3J5wCwa0iPJiDezFInJU5bujNj2DBTBQ7cqDU9zMz1NfgTzTS1edtla0v6Bb7tnfycZiS0XbBqZPG1b9I6tmZLf8aMAIng4OQlG3dVluwhBShi26Cue7SNmidNW3oSAHZdn9oWEHMJYhkJNogpFxLjhcZQEI0GUJ/BAONrjeDtYPkWmC1E6hGBYzQawGPM+getxXvadmBO0VvBWXzXNyVZa/0fQ1HLFnNXHimZtjI5ORJG4E1m9GStB3ZZsWFdZcgdUoAitg9K/c6wqdTG0xYdy7y+W2/BNJ2IvhCsHoe0dklNLevNWJgJAHtuTw0z89QTmuhJZoQx+BAz6rLmtzWoO7O1mFiMa/z54h/La29DWlotqU5/rzU91GbBytnl5VuR2m4sazyqCf1Sl61bcaHlDilAEdsGp64hDvSUynYdAe8R8UeNmncd/dPWlX8i4NoGUxfdWDL/nttTw4x8YzIzhjMDzAzNnA9N3RrOXLTmfO1t6tv5E82sW89fdev58q7oeu1DmvF3i7lv9xUbVv0WOUsTMgKLICCGhO1RZp5MoHcazUi/G2PHMhijWOClknl9I/o1t/nNdcTUi0GLii4XAAhj4vmZQ7oNrqitTf1S7gJRR4QZD/6cvqUsW/86gBcFMCu9Y5um5y3wCwgpAApX/gDYAf0sAeMbzVz8AAG8Z2j3FAb/lPDZou+Awvf8rJt6PRK0gus0kEFEgwjcjojfDkiRCMaHAKKIaMbOId1uK6utjL5dWhPwChEPa/3Fz18X6Lp8/UsgTGdJc+d37Bh9QQRHNfcEFrP1u5SmglGTiP5xxefpTxdf1yTuklx49++7qadzv8aHYG5MQg9BMG9ZkCJWM/Omk6jzYNK0aQUA7th5Q/epYHzAwAfbB6fmNf1y6fTi+r67LrW2DljTwPRki7krNpbXn/TUVGWDP5Ghr7aYGxJzA4vRgDUngtHAQMGdAF69ELKHbAAAGYO63ClA7xHhB4KY1MSMmbQvzxsVsJkzEmcu6b7r+rTrBfG/AJps84f/zTl7dt6+YT3f1eC0YFC0S/x8wYGS9e0allbfCuj5zLo+s+zUdNbiHxigjP5dPrcIP7Wcs/zhM20PSzJPH6vTGtDtg5a+FqCrmfkqZvYwY5MGb2KLd2pBP1mBwL5afuFpu3Fj4ELJHlIAABkDuswioquIkFjo/qMFBF4gCD5AdpfEV7EU9zSetmgzAOwZ1v12MP0LJDo3nLbw+zLrHNY7WhT4F4FZnrKfbBvmiXhEMycX+M3bTON0J4vRjTVSmNBas/ZoppVgvZ602CSEf1PbRRvLdDZdaKq9Amwb0qOuFQj8aLNqOoMqvwOgZ5KgaBDnCcgdBLyT2KrLJBo7VgPAziGpVxOJNUR8Z6MZ6VMrqnvnkE5x/qCxnLX+lkHDmDmDgabMvE0zr2CNVTKoV7Zasjr74kh7LtXeBijwF9wJ4qVXfPWVf8fA1AwL/B0YPcCkLfDfr5qVPhNfLAFQ6Mtn0DRAj288Y2m5g79tSI+62goM9gcxlJkTGCQZ/CY0zT9N/pUdvlp7/KIJeB6qtQJ8M6xjOJ/kP4HFyM0DOg8p0PpNIsSD8AxpvVtIGgjgTBQQkfG2Zt7RpGXqs5i59Ky6tg5NcSCghkBYQzkYbAdgJZjnkZB/vHrW0t9tKHm1ngI29kp+RAgaQ0RriDCi6Md4ucW8FU9kDEsykR+z57TjZELbtzcGtg7uMoaY7iMEOzadteoEAGy7LjUBmoeyksOlsiVoIWdZJ47NOF4juLzTtKoRMVxtFWBD7xQHgbcRWBJRBAgQhH+3mLfyAQIYADb377JSS2uUZBVF4C+1VClsaUOCh0KKYcIw60e2Tzka3f+6euFNkwwAvYlowSUW7RdRbacAra1xRFhITFtJ8DPE+KhFx1UP0jyc+ejDAu+lALXXQj8nwDsBniOVctVo2+Fonb6DHZEtWikh1UkAnwHoBiD2kgn0K6mWCrCmR6ebmDklKNDCYOoA5um7arnuvKbEMm16amoYc1AANBFCCaN1WzOqZ397RIvWQhrGHqXUX4VUy4hoLwAw839RBRWg2k0Bq7p3aiygV5PgocQiCYQeEXWO31K8XLuuV8dOhi38LtZ6uHLV80f0G1wrol0nKW02SCnvl1J2llIOkVLmKKUmCCEmEVE+M48FoIjo/11aCX8Z1UoBvu7VombNgvClRDyNSKQSI5zzqZ8WQhkRdL80zAcZiLUlp8qa3XtK0+nOkFK+p5S6WQhxRd26desSkT5x4kSsYRh/llKOkVJmEdFwFE4BVxDRA5dazl9CtZkCGBDL/WFTGPokIB4n8E4w3YT4qBfl6dP3Ij5eqpQeRliH5BMqPPwzIeV79erVWwsAPl9OKhHlFm8ZFxkZmQvgidOnT79JRFOklMsAfIIquLhWbRRgaedrxwnm6zRABM7lGjWzydLb1FXNTaNzqjDqNYBS8gl/IDCxaWLiWRtBMHMEs3VOpG94ePheZk5FoRE4BsBbF0eaC0e1UIBFydf+jcEPa10Y00eGqkUt2lwne/Q8JevUBUm5G+Atmrlzy5YtXy5dnsEulLNdHBFZzPwGgEEIPQF+fyzocM3TYP1XBkC28CM6rXcYru3wE9Wo8QaT8T0zVrAW9xZYaqctjLdv3b79vmZNm75ZXD4zM9MGZrff719fum6/399UCPECM3ctDB2vejbVZa0A89u3fhTAC1rKXO6W5keHlPXSDH+je1pqOgCsXr1mCpjebdOm5QoA2Lx582hoMWX79syDTZteMQ0ADKNGM2b+oV69emc8e3l5eS7LssZqrQcKIV4jotsBjAbgvPhS/jYuWwWY277VGA36c7B9542ie/fdMMw/9evXN6s4fcWKFS215nb5+TXaFF9r3rz5f7du3WoH9Mc//rgzukmTxElCWK20lqsA4OjRo3WCQf1EQUHBzUKIN8PCwhKJ6CQAMLMAUOU2lLwsFWBOm1YjYfHV+Xff85CId0yVwvjjwBKDDwDMeBXQt3fr9r+NIQGgWbNmr23fvt0D8Ae7du3uaVlsSYnPvV7vY35/wV1SqvcLCgqS4uLiziqnta4lhNh/MeS7kFQ5o+V8fHnN1S20wNb+GzbdZ8XGFjAYQHBfyTzp6ctGMmNVcnLy6rLqaNq06TSAWzC4CYiHg/TfNABmfU1MTPQ/Sw9+EXUBHL7wElUul90TYNC3WzYXL+aQ1j4mAa1FHIB9ALBo0aJGGnoEtO5XXh2bt29vy8zPgvkgmA+AWUHrH+0uV7n7BBKRG0CV2h4GuEyeAMxMzEwAUDz4AOD3+39kZotZpwFAenq6srR+C1rf161bt2DpOjZu3NRn06bNs4VlPaK1HhsMBm8BsJKIegH4k9frnZGbm3tNOX2oB6DcD0F+r1S515bSjHv33Wh3VNSx4cOHW2WlT5/5+XJDCpff7786IiLqSSHkkT59ek4oTl+3bp1da32jlPIWKeVym832WlJS0j4A2LFj56NKkbdx48afMjP5fL6RQsjnpVQ7pZQziXhu7dq1dwNAMBjcqZQqcxeR3zNVWgHGvfFGc5sQwTFjxmwrL8/06Z/fIqWYopT8RgipatQIS7YsqxGR6qqUuElKWVcI9a5pyilt27Y9E4iZmZlpY+ZV4eHhKSVfAffv3x8eFhY2Rkr1kJSynpTyqDTUNimEMA2jQ2XLfKGpsjbA+PHjE4TGdWMeHPN8Rfm0DnwtpJmjmTsReFe+v+CAlPKIEJivtXi2a9fkMj18gUDgXinl9JKDDwBF/3+VmSccPXp0kJRiILQeBKI5F1C8i0aVVICxY8cKS2NKwBTDSqdNnDg1IiKiIEUo6q6k0QMkmjGzYmYwc0MLnNa3Z1p6RfWvycyM4oLA6GAw2L6CbBYRHWPm2sxcS2tdKV/vVjZVUgHCatS4hTXXfXzMGN/YsWPNmBh7BympuzRUDynyGjHkBoC+AVsPg5HHLNZr5umC+QbB/DgzL61ou9cap0+Ph5TvlTw8opjMzExbZGTkLYcOHfqTlLIGM78FoLYQ4oJ+tHmxqJIKwBr3QbLxf+MmfKWkjGbmTcy0CtoaNequUWdZ4p/9d9r7grE5WOC/yQiv+Tw0P7VgwYIJzPzHspTgu+++G6w1tzp06MA9Ja9nZmZGhYWF3SOEfJiZtjDzk7Vr155LRPrkyVO3GIaxuXRdVYEqZwSOGzcuPN8fOCGlnG0a8o5HHnmk3A8sP/vssyaA2CyEGjB8+NCFzEzz5s1/VQjxJyHUO5blf7Bfv35nTgJZs2aNWyljrWGogS1btvwWALZu3eowDONhqdSNQsqZkujNevXqnQnzPnXqlEMzT46MiOhVuZJXDlXOD2BZViQASYCsaPCZmQKWfluDpw0fPnQhABAR9+/f91FmfgSk7zBtYd8sW7bsKgBIT0+PAInZAL/VsmXLbzdt2nTlli1b3iEhZgDIDLPZkhLq13+05OADQDAYTGOtK7Qpfs9UuSmgQYMGh3bu2pOnwVdUlO/DKVPuUUI2DfiN60un9evXZ8L8+fM3aSE+sjRvWr58xRtSyiZg3svMGzZu/O5zACe0lm9e3bRpme7iYrTWvQ3DqLKHSlW5KQAAXvzHPz8johulMFo//vgj53yc+fb773cyhFokhbzhtttGzCuvngULFjiVMlZJKROklJBSZksppthstvEtW7Y8UF65Yvbs2RNWq1atNdHR0a1+q0yXiio3BQAAQT/NzKc0rHN22Jg0aVJ90pjJwP+VN/izZ89vOW/e/DeIaInWPE9r/oSZ85g5ihm3BIPBfhkZGeb5+lGjRmQfFG4FW2Wpkk8AAHjxpZfuESTflErc9tijj34MAK+//o7bZuN0IeSuWrUi+5d0D0+dOrWZlMZwKUV3IYxtSsn/njx5bNnw4cOt9PRla4QQi4TA/xk22wNCiAeUlIYUYoE0jHkCWNasWbOfSvfhwIED/5FSvl+3bt2FF1P2C0mVVQAAeOmll8dIpV6TQoyDqSabQnwppTwVqFkzJTIQEJCyuxKil5CqoRJyhxBqTkxM7SUlF4IWL17ciYScReDEbt26HQWAqVOnyoZXXJFiCjGYpOyqpLxaSnlaCrFVKbVZSpkhpdwupfxXXFzcVUQULL+Xv2+qtAIAwD9ffXWoEmqSlDJGSmkpKd6XUgohhRZKrbMptWTEiBHnHAsHFA507TrR66VQ43v0SJ1SVh6gcK4PBoOtiGRbKWmAlLK3lBJCiHEOh+PRypOu8qnyCgAAEyZMiNegiUqq66VUHinE3ffee3e5xl8x8+bPf04J1bpXr7RBFeVjZrFtW2YPw5CjpZStpKR0KdXdhqFaxcfHn7MzeFXislCAYsb/618dDci/SyW7Cyn+qwQ9O2rUqB1l5Z09e94NUoqXtA5eO2DAgCOl05lZfP/99x2FENdJqboqJdcTGf9p0qTRqr17949USjxSr567ZeVLVblcVgpQzMSJb3cyDLpfSjVESjlLCPXOrbfenF7s+p0588s+ypAfGkr26tu37//OAUpPd5ummSqESJVKJUsp1xtK/efQoUMLS9oNe/bunSuUWtjA7Z5QVvtVictSAYp5//33Y4nUCKXEDUJKlxTyK6VUppDib1KoEULIXMOgNkKotlLJzlLKPCnkV1LSPL/fv6p01BAAZGZmxiqldgBo1LBhw9/V+T+/hstaAUoyefJUl2nydVKJXlKqjlLKOlJKJaXaLJR4g7T+snfv3ud1/mRmZj4lhGrQuHHDey9GvyubaqMAJUlPT1dHjpy8VilKNgx5rRCynZQSSskfiORmw5CbpJR7iCjr2muvzSmeOjIzM6OYsVMI6p6a2tGvtWgmNB3TQgQ8Hk+VXA4mh8PRxhYMZu/NzfUVX4yLi4u3EcXuz8nZ4nbHJgK27KysrErf8yYxMdGWl3ciRQi9Nysr96JurLRo0aK6gGpmGPIqIcSVSslEpaSLSMYrJU0p5TEpJSkls5o0adINAJxOZ2dibgsgP9vrrXIfhgKAEuD1ASVnADgTXWMo8brWuAbAFdpSD0qr4HUAlXZoQTGnT514SQAJlqXGOR3xL3u8OUMBwOVyNRGWVSvfsrbl5uaWFZP/m0lLSzsEYEXRn7OYOnWqbN68ee2AlLUQDJ65EQKBwPdSyh2maVZZR5ACcBCEK+Pj42vm5OScio2NjQCTuzi6WsjgGyxtHgBoEBPjCJhmewDbPR7P9oTYWDszU8CUSYD8xuPxFLhc8V1hkc72+VYACAIglyuuA1miNpRam5WVdfh/dcm2RGpHdnb2jw1iYhxB4FpNeAOMg0TUwel0NhUiYMHSXS2BYBipcFwC33uRS/kQSn36VaSMlaKQF4vCxSCmOYqoPwAYhhhIxLOKM7AlX6NAoLHbbm8XVGo+MTck1pPdDsfQgBJ3BE31tWBxp9Y6wemwL4YWPQjo43LYFwJQTrv9r6zlAxDckq3g6piYmEin05kcNNQcYtEYWk90OxyjA6bZCKAYYmonmNuBOZy0boegrMPMxwRzFDPnX5qf6fKlUAGEmAoqnAKI6QYK6umlMzLxgwCezvZ6xzOJYZroAAAw09wsr/cPQnAiMXZle71PZ/l8TwCc5YqP70OExgTsDWr6TGruGxERESCtn4DQD2R7vRNs+fk3MPjpIiNqt8V4L9vnmwzQsWyf76Nadet+D0Czxi5izrt4P031QAFAdnb29y6HvbHL5XKT1vJUMJgbbp69GsqgWKH0fgDweDz7AOxzOeJTwLwfAEiTi4G9ZwoQ7SFBTmWzPRwsyP+jJMyyQKfYOnk9kXJKv94LALuPHDnmstsNlBOckpGRUQDgHIUMcWE4Ew9AhNlg6y1mLvOAZAJv46C4BgBcrriOTofjtcLrhcaCJtpChA5nsmt0AvOOgP/0n4MaE7M9vhbElMFBozsDGZZhdAQAtzs2EYQTKLQXSlJu1G6IC8cZBRAaU8Hocbqg4IuyMhpB/U8m3OFy2GeAxXjF/HbJdK/XuwLgHS6HfanTYV8Koi1ZPt8yMP2gCF+5nPapDNRnIb7SoGcYeNTlsM9gS04lxrlOFcJul90+65zrIS4tMTExkRWlJyYm2txud3ipyyo2NjaidN7o6OgoVByVVOViFkOEqFLIsi4mJibaIiIiotxut87NzS3zq9vz1Vu/fv3ax44dCwL/2371UlIsU+KxY5b3d9Kn3wNn1gLc7tgroOXDYPRjoGGJPCfBWAvghWyfr9z4d5fd3g0CI8HoAcBdImk3CPMZ4nWPx1Pm2nxR+UeJcDMDGdle38jy8v0SnE7nlQT9MBh9ASSUSDoB0BoB/H2/11ulgzp/KwIA3A7H3WzJzcwYU2rwASAChB4MdCmrArfbHe1y2OeCsASMkTh78AGgERj3E/Rmt9P+HMpbgCJ2M9AGwAU5F89lt99HrH8A4z6cPfgAEAlwTw3d+UK0VZURLru9G4MnAbARsJGJB1mMuGyvj0iqumB0B3gSEZ9z9q3T6YxhK7gSQD8AIPACJjFEqKDLHwhGSc2NmfguANvAMJjxjMth/3dlC+V0OnuBMBGACWAdGAOKZYKQMdDcg8HvMNMFO32ryuKy2790Oezsdth3n8fCL20vkMthn+ty2NnlsGun3T6mvIJtAMPliJ9SlJdddvs5hyq6HPHji9LX/lpZinE67F8V1uX4MT4+vqIj2Mu0gaoTAoSrAYAZSw8ePHiigrxnGYNuu70Piu58gF7y+HwTyyu4EQhke3PuALC+qNWXEhMTbb+t6+VDKJQJ0EtycnLK3dgJpWSqjigCjhRuqYVGv6QgEwq/ymF4ateNHpvtPe8GWUEm/RdisQAMR37eiesBfPprOn1eCEfAcAPiF8lUjNPprEFa38eEQcRwAsgjovUsxL+ys7PP+RTN7bSPZWaHgJgZFR2dfuTQoYcI6MOEoGbcKoS4kti6FQBIGk8Vr4ie2278KGK0Y6ZMj8931smgboejD4NHEdCMC59cu8H4LNvn+wSlb06How9DDyEib5bHN9Ztt3ctHC+2g+m12nXrfnn06MEUaZFPgFBs2Xd12u1/xs+IEkpKSjIBpAIAE31U5K8/Lx7PgcUAcgEAmnr8nDK/BmYqkol7uh3xD+MXRD45nc4rBestILxKQBcQEkFoweBR0NYGpzN+1LntYThAo5m41ZHDB98nwisg9CCgNzNHSFmwG6BRAI3WOjCkrHbbAAYx/QOg0SU/NCmcPu2TGfwVgBsYaAbgSgB9QZjsdNjnJCQkhJ1VGelWAI0GY5jbbu/LhMUArgcomQSSjh49msAsIy0gSQQsfgVFe+gR4RWX3b7Q6XSWuRVaMYcPH24OIBwABPMveY3SADYUdhKVFlJtBoP/AJAFAAya4HI4vna54s7bnsvlqkusFzHQkICNELqT3eszLUZDBr8DQBLoTbc7rkVZ5VmjExENJ8IrBLoeoEcBnNq//6AHwAIAIBY3llXWZ7f3QuGRM/kQlgoEAQAAB+lJREFU4sxHKj6H/XUAtwE4QaB7pGFG2/L9tQl0KwjHCOhTkJ8/tsz+AIIJE0BYzsQ3A3QbNNYZhrFPWJaXmH9SOTk5B1wuVzK0NQtAaxB6EOsNbofjMwt4yuv1nvNNnGSO46J7ShQpz8+FGF4uXEGq+0vK/RL25ub6HA5HZ8E8C4QWAPeEFt+6HPGfMsmnPR5P2Vu6svU8ADcYO/2WlZqbm3syGwB8vr0ARruc9sZgdGdLPArgXF8FYSCY7svyeiedWzc+BKEvwN3i4+PjcnJyzgpAJaIRDAaDZnqysw8BgDs+vj0D9wJgAg3P8nrnlyjysctulyB8SIQxMTExL5Rhw11JwMosj68Xzl1sWwsU+QGys7Ozsr2+dswYg8KoF2LwzQK83eWI/ztK+eQZ+N/bAvMvjRXMK6rkvF/f/ha8Xu9P2T5fGyJ+CIVbuAqAbiHWO4r8EWe9ASQkJIQV+THAgp8pM/RM4yMAAKFnOc3uz/Z63ysrwQgLm1XUDyWJbiiZFhsbG8HgwQAgmN8pvs5E9wAAA1+XGnwAgN3n+xSFAxthmmbHMpolTfp5nDv4Zyg5sEGPz/fv+vXr/ydYUPAEER4CEA7QX1wO+zVBzcOKLWoiOs5Fq7VBKWuVV3lZMCGqsA5cjJj6YJYn5w232/0JdPApZjwAIJwZz7js9tYsxE0ejycPAAoK8q4hiBoAIFhEuOz2c3YgI4FGzAAYDqfTWaO47BkYi1HOj7137958l9P+GRj3g3AjgDP+EFOpIQDXAPBjls+3rESxlKKKD5XVn6Io3qMAYoj5XIOXEPB4Diwp99dBGatt+/btOwLgSbfb/QZbwQkAbgDQVwnxAoA/AgC0zoYonAMErKsAfFdRI6V6lVi41E+ZP7/Mb6PI6n7M6XS+Lth6nUHXgTBQQD8H4DEAIC2cxaYig98uy2zkEhEKwWAwEsVPsyJIoMLdwoXGh5pwPwGd3W63KysrK7uovRFUWP+7KBkHQXAU/kUjQBhRUd1MHHXuRXhwnlfdcpdbizo33GW3fwHCIIDHREdHP3P48OHjWTk5GS6H/TCAaAb1xM98nStc/uVrCvumf7PD55dSNPdf73LYZwPox4yHnE7ns+fcycA4ZlToJdRalxWeVmHI2n6fb73TYc8gIIktaxiACQmxsfYAkAagwGKeXKpI0f7HvEAzVXiTicL1mtKFK/KBADj/ejuz4DeIaRAAFW4YzQCsAaAZNJPAd4FxY4OYmKd/OnjwvI6AcJvtToDDALCwuMKj1ysRTYyJTOiHQldxUwDfEpBbfOtJxvv7fL6MSmm90Bh8BcQ3ApgQVOJGFNojn5c2DAEcAJAApu89Pt+TldGdn7NFzBlXKkt55n2fhHgFhACA8KCh3sN5lKleXFxjAj9XWBjT9h84UOnfGZQHl5BJWlYBAOQHg9+iaP7WRMmV1bZpWR8DCILR3uFwNGDQHwCASbxzTmbCusI0rrT+CJfDPtnpdJa5AtcGMEhT8T48R+rUqbOlOC07O/tHBopPyezrsttn2O32Mo9OredwdNFCLGcgCkAuQzx2QaUohdMR/7HL5WpSVlpSUpLJhOLDHXP35+RsB4CiV6gvAYDBf20QE+Moq7zL5WpSnpw/h725uT4Q5gMgAQwF0JaAPR6PZ1HpvAz+uPBflOx2OMq0ARISEsLO57epCAWgD7G+1eWI/wZES6CxmwVLYiT4iG4GozEAMOOvpT1+Ho/vFbfdXo8JD4AwSBIyXU77F8T8HUPkE7GDGT00uHORUXUQmgd5cjwV+Q4SXU57udNDeI2IW3fu3OkvLx0ACOgPbf3B7bCvBCGdC2VSxGh47PChP1DRkjeB/oISVjtJ60m2ZG8A7qAh17sd8a8Q0zfMnK8lGpGmwdDWHwBcg2KP5q+AmD5k8ACAHwEgGPQeyghS8Xhy5jgd9vkE9GHwZJfD3hmCp0uLfExUVwMpAX/+3WB8BuDbX9MXhUKPWRxAyWAkgwDiM+YwCDiuGU+Xs9jDWT7fg25n/CZmehGMWAAjGTQS4JJWswZhhqXxuC8nZ+95+hQNxjmvPMXk5eXdfn6xKAtAbQZSwEgpKVPRuscxMD2R5fWe9djNysrd6XQ6+xD0NDC5GJjABIAIxCg0yQi7tKV/0+FQYTVrzjl96uQhAPUABIUKfFBOVs73F9wYHmZ+CkZ/APdC070WnZEEAPIF0a/eppYASKfT2RFadxRAfQYagFBQ6LGjdbb8/Fm7jxw5dr6KYmNjI0wp+xDQlQlOAH0A1ABwQFi60/nmfJcrriNp2fx87WR5ve+jAsdGEaqew9HJIu5wRiZGPjO8gmhtnt8/+/Dhw8fLKxwfH19TStxImjqDEA/CKQL2ssXL7Tk5X2/E2W8ILrt9OBHVZmGtzc4+8LO2jHE6nb0EcwKAg1leb5mh+CVx2+2pTBhI4EaAIA3kErAxYFmfHzhwIOes/rhcrUjrdsx8JNvnm1ZRvZX2ebjTGdeTWMwGYANjsT8YHHKe5eYQl4BK2yjS4zmwkImHgxAAoYfNMDY6nc5eOFvpqn1AxqWm0jeIcNvt/ZjwMYA6RZdyAewHEAHQpGyvd1xl9yFE+VT6VrFZPt+8oOY2IMxFoaUbi0IrugmYK10BQ1TMRR0At9vt4kCgNQnhAHAwyLzS5/P96tepECFChAgRIkSIECFChAgRIkSIECFChAgRIsR5+f8b70E7GGImYQAAAABJRU5ErkJggg==;" parent="1" vertex="1">
          <mxGeometry x="409" y="147" width="110" height="110" as="geometry" />
        </mxCell>
        <mxCell id="pPCsq5DY9bUPXMMZWvm_-47" value="" style="shape=image;verticalLabelPosition=bottom;labelBackgroundColor=default;verticalAlign=top;aspect=fixed;imageAspect=0;image=data:image/png,iVBORw0KGgoAAAANSUhEUgAAAIAAAACACAYAAADDPmHLAAAACXBIWXMAAB2HAAAdhwGP5fFlAAAAGXRFWHRTb2Z0d2FyZQB3d3cuaW5rc2NhcGUub3Jnm+48GgAAGaVJREFUeJztnXl0XMWZt5+6t3ftuyxLvUiybEvyhh1sbAzGCYOBzBcwS85kQsAEvgxgliGZJZNMZhIm6wQStoQQmPCFQDKEnTF7BmOz2IDxIsm2ZC2t1ZK1L63uVnff+v5oyQuSF0m3W2pZzzk6R6fvvfW+t++v61a99VYVzDLLLLPMMsssZyNiqh2IZQoKCjIJBr+FFFcgcAC9CD6UmvJgbUPt21Pt35kwK4AJUuBwrAZeApEOaMARIAmwhs+QD9XU198ByKny8UxQptqBM8XpdFoK8/IK8nPz5xUWFpqn0heXy+UQiFdApEvkH4LI3Jp695y8eneikOI6oBPE5kKH49tT6eeZMO1rgHyH4zKBcjfItYBp+OMQUIFgh4QdqpQ7DtXXHyRKv7ZCh/O/JGxC8khNg/uWzx53Op0LFMknAhRNEa66urq2aPg1EaatAObPn58Q9PsfR3INQHJysuZ0uRRVVWlpbubw4cOfvaQH2CEEOyXsCGjazoaGhm69/VoHhkaHsxOkYrBYciorK/vHOq/A6bwfyR0CcXN1fd1jevuhF4apdmAsli9fbuzp6HwRWG+320N/d9ut6uo1axRFOfbG6uzs5MD+/ewvr6C8vJyDBw8m+7zeDVKyAcAoFFngcB5EshOFHZoQH9bV1VUQrj0mTEtubhaQCOKDkz38YT4A7pBoRZOxF2mmpQC62zv/RQjWLywulr944H7VZrONOictLY3z167l/LVrAQgFg9TV1VFeXs7+8gr2V1SIxsbGhRK5EMkNipQUOBwDID4G8aGQ7JBGZWdNTc2R8fgWwmwNa0h4T3We0MSgFBKONgqnJ9NOAPn5+UmEtH8wm83yP370IzHWwx8L1WCgcN48CufN44orrwSgr6+P/RUV7K+ooCIsiniPx3MRyIukAIIhChzOGoHYIWGH1MSOlMyUvbt27QpE8BanFVPWBijKzZ0bUgxXIeQKpMhESHX4UDaI0oyMdBxOp+52fV4vAx4PnoEBBjwefF4v8sSmowayDyF6gfCflP5jh4UNWC2gSyI/PZkdgciQsARBI1JWjjpBihBCHkEqH6ta4PmqpqZmnW5xXERdAIWFhWYtEPyxgNs41qo/2/GDeEgY1e9UV1f7T3+6fkRVACUZJfE+m+cNYLXFatGuufbLyuo1q8nOzsZkig0tHG45zE033sjSpUv54U9+fMIxj8fDtVddjcvl4qFf/4oBj4f4uLgxyxkaGqK1tZX333ufZ//8jObz+hQQ71sGbRsq2isGonEvEOU2gM/m+T2wurS0VPvlgw8oGZmZ0TSvCyOvC7PFQm5e3gnHBgbCz81oNI46Nhb5BQWsXrOGr11/vXLXHbfL/RX713htA7+DcNc3GkQtEljgdG4ArpyTk6P9+rePxuTDjxRZ2Vk88tvfijk5OZpAXO2yuy6Olu1ohoJvAbj7m99UEhMTo2g2NkhKSuKuu/9eAVCEvDVadqMlAIHkCxarRa5bf1GUTEYGgzH81vR6R4cBvIODw+cYJ1T2RevXY7FapYSLiVL7LCoCKMopSgNseXl5IlYaeycjIyODuLg4qiorOdJ2Yoh/27vbAHA4HBMq22w2k5s7VwiIK3C4flNod11TWFiYMWmnT0FUBBAwB+IArNYzC+pMZwwGA1du3IjP52PzLbfy8Ucf0draynN/fpaf/+xnAGy8+qoJl2+zjfQa5M1SyGdkIHik0OHcU+h0fnv+/PkJOtzCCUy7SGAssPnOOzhw4AC7PvmEmzbdeMKxv7v1Vs5duXLSNm7ZfBtNjY1UlJdTV1u3REq5JOjz31HodP5Ntdu9ddIGhpkVwASwWq08+vhjvPD88/zlrbfo7u7B4XBw9bXX6PLwIdweyM7OBqC1tZU//P73vPLSy9lSyjfy7fbLahsa/qKHnVkBTBCDwcA1117LNddeG3Fb2dnZfOsf/5GFxcX87Mc/MYHyx9zc3AVNTU1dky17xgmgt7eXhoYGGhsaaKhvoLOjg66uLrq7u+np6cHv9zM0NITvM614i9WKyWTCbDaTnJxMSkoKqWlppKWlYXfYsdsd2B12prILe/kXv8iBiv28/NJLGWbVeDfw3cmWGdMC0DSN8rIy9uzezd49e9m7dy/tR85sdFc121DUcHdNCwXo6zuzpJ3MrCwWL1nM0qVLWbpsGSWlpRyfpxBprt+0iVdefllqUn6Fs1UAZWVlbHnlFd5+6+0THrhQVOIyHMRlFhCfWYAtw44lMQtTfCrmxAyMtmSM1lP/ggPePgKebvz9HQwNdOHra2OwvYGBIzV4jtTQ3t7E22++xdtvvgWEBfGFi7/A5V/8a0oXlUb0vgEyMjNwupzU1da5XC5X1mTTzWJKAFVVVTx0//28u/VdAIRQSMlfQcb8NSQ7V5DiWobBPPbgy5litCZitCZiSx+7Lx/0e+hxf0p33S7aD75Hu3s3T//hKZ7+w1NceNE6br/jTuYVzZuUD6cjLS1N1NXWoYZCacDZIYDnn32OH95zD8FgEGtaHvkX3kj2ssuwJEZ3TMFgjiN9/lrS569l3oa78Pe20bJnC+6tv+Pdd7by/vb3+O6/fY8rN26MmA893T0ABBXl7GgE7tu7l//4wQ+QKBRf+T2ca69DqNPDdXNSFq4Lb8R5/tdwb/9/HHz5p9zz79+nsLCQRYsX624vEAhQX18P0Od2u8eVzjYWMTEv4Bf33kcoFGLepXfiWrdp2jz84xGqAde6r1N4yWZCoRC/vO++iNipPHiQQCCAEOwkPCFlUsSEAHp7w1VeW5kusY+I0rrvDQAG+iOT07G/ogIAKeUOPcqLCQHYhwdXeup3884PLqCnfu8UezSarrpP+N9/X0Nf034AXAX5EbFTXl4OgARdBDD96tIxGMkMFqqJwc5G3r/vCmxpucxdsZH89TdjsMRPiV9Bbx81f3mU5k9exNvTDDLsowwNEXeSVLDJsr+8AkAaAuaP9CgvJgQwQv7Gh/C07KX9k98z2NnEoTce4NAbD2JOSCVxbjFZpevJKPkCttTciNgf7GjgSMXbtJW/Q3/LAfwDXYzMRlPNCWSsuJ64nMXU/Pn/RsR+Z0cHR8Jxj0NVLVUdepQZUwJQTDZy1n2L7DW30X1gCz0HXqO//kP8/Z20H9xO+8Ht8Oz3EUJBtcRjTkjHnJCGOT4dc0o2loRsTImpKIqK0Zp4NGYQ9A0Q8PWjaSGG+rrw9bbg62ljyNOBv68Tf38HQf8An80fV4w2EpyrSF54GSkLLkMxWul3vx+x+y8rKwv/I/lQrzJjSgAjKEYraYuvJm3x1WhBP4PNu/G07MVzeC/+zhr8PU0EvX0EvX14jtTqY9Nkw5ychzmtgLg5S4ibu4S4ucsQavQSXI42ABV26lVmTArgeBSDmXjHKuIdq074POTtxt/ThL+3iUBfCyFvL1ILEPL1o2lBQv5+ZDCcgi8MZlRzAopiQLUkIFQTqiURU+JcTElzMSfnolpTpuL2TmBEACpneQ1wJqjWFGzWFGxzFk21K7oQCoWoqqxCgmeu211+SKdyY6IbOAtUVVbh8/kQ8PFWCOpV7qwAYoSR6l9Iffr/I8zYV8CkkBLP4X2E/Meiedb0QowJWVPm0ogAUM5CAXR1hRf6kIHozJvsc39A9dNfPeEzU+IcSm//4LTXjvjY0aFLN/0oFcMCCKJfDwBiRACHm8Mzp/tqt5M4b33E7cXlLCbz3BvRgsfSxuLzzj2ja3sOhRNFWnSc7d3d3U1LczMS6txud6tuBRMjAsjMzsLtdnPk0ycxxKeRvWZzRO2p5gRyL/7XcV93+N1f0rHnGQBy5ubo5s9w+BdFx+7fCDEhgIyM4ckxWoiWrffStuNxss+7icxzb0IYpnTFOGTQz5GPHqNtx2MEvT1HP0/P0G9CT8XREUB9q3+IEQGMELf8Bvy1Wwl2u2l+5+c0b70PS5qLBNdaUkuvJC5H/wSMsRhs2UdX+Yv01W3D11l7NESspriw5F+IZ9cTutqrGBkBlMrZWQOMYMpdSfzKW/DVbcNb8QJDTTvxddTg66ih/eMnEEJFtSZjSpqLJS0fa9YCLKkuzGn5WFLy4UyzdzUNX3ct/s5afF1uvK0H8XZWE+xrIejtQcrjFhpTVMz287CWXIHZuZah5k91FUAoFOLAgf0APmuiVfdx8JgSAACKAUvBeiwF69H8/QQaP2Ko6WOG2soIdh4iONhJcLCTwcP7oPz4CwUIASIsAqEYEGJ4Aq6UaFo4tiJkaPgHfZI1JxUVY8ZCDFmLMOWuwJy3EmGK3HB0XW0tPq8PELsqKiqG9C4/9gRwHIo5AXPh5zEXfh4AGRoi1NtEqL8Fra+FUP9hgn0taANtSF9v+CH7w2MBMuA98REbrSiKAcwJqIoBYUlGTchCTchBTchGScwJ/5+UG9UBoJH3PzolgHyWmBbAZxGqCUNqPobUM8vGkYFwN08Yp+9SfhVl4WpM7wjgCDNKAONlOj/4EY5GAENqRAQwOxYwjRkYGKCxsRGgpbq5uikSNmYFMI0pLytDSgmCiKUZzQpgGnO0+pdS9wDQCDEhgNTUNAACrWVT7MnpGToc7qqnpqZOuqyK8qM9AN0DQCPEhACu3HglJpOZgY9+Tf97P0fz9021S6PQ/H30b/9PPB89gsVq4/986YpJlSel5OCBAwABfyi0WxcnxyAmBFBQWMh99/+COJuNwT1/pOOJy+l/7z4CRypGZepGFSkJtJXTv/1eOp64nMG9fyIhIYFfPnA/efbTrxR6KpoaG+nv70dIdjc1NZ1yafrJEDPdwLUXXMBLW/6HRx/5Dc89+yyDe55icM9TqAlzMOV+DmPOUkzZi1GTHUejfbojNUI99Qwd3kvg8F6GGj8iNBAenTUYjVzzt1/h5m98g7S0tEmbOnQonPUndU4A+SwxIwAIjwp+51+/y9dvvonXX32Nt958g/KycrwHXsZ74GVgOBiU4kRNcaAm2VFs6ai2NIQtFcWWihAqwhwHQkWo4ZFEGfKDDCH9HqQWRPN2Iwe7CA12og12EOypJ9RdT6inHhk6Fo0VQrBo0SL+asMlXLLhUrKy9csYOlRVFfYtQhHAEaIiAE3TFEXHhS+zs7O54cZN3HDjJtpa29i9+1PK9u5j3759HDpUhbejikBHlW72RrDarBQVLWXRokUsXrqEZcuWkZkVmTSxEQEYdZoEejKiIgChiaJItTaysrPYcOmlbLj00qOftbe3hxeJamjgSNsRent66O7ppqe7h8FBD35/+Ffc1xduTI4s/GSxmLFabSSnJJOSnEJySjIZmZnY7XbsDgfp6emRuYkxaGxsAjhSWV9fF0k7URGAorIsmtsnZmRkkJGRwTnLl0fPqM5ITYPwxlMRJSq9AIFYFg07Mw0p9M8A+ixREYCEWQFMgEjkAI5hI7I4nc5kIWVBpO3MQEJmT9yuSBuJuAAMsDIadmYgB6Oxd1DEG4Gaxioxzh5gMBgkGNRt+tu0wGAwYDCc+dctEREL/x5PxAUgBKtOf9aJ+Hw+QqFJ7fA67QgGg8THjyd3cGYIQAg412A0Egic+WacNpttxglAVdXTn3QcmtBOuimlnkRUAE6nc76UpOYXFlIZHtk6IxRFieoCzNMUdzSMRPRbVglX/0URXjt3JiKEiEroLLI/M21EAPMjamaWiRPRV4AQrJLAvKKicV3n9XrH1WaIBYxGI1br9MtCjlgNsDgrK04iSzIzM0lNm3x61CyRIWI1gMdiOReEobi0ZNzXWq3WaflrmYlErAYQcB5AaWnkd9GYZeJETABSiJUAxSXjrwFmiR6RawRKVqqqyryiIrq7u8d1qaZpMzIQNB1jGxERQGFeXoGErKKiIszm8a/gMTg4OOMEYDAYIraC+GSIiAA0RVklgNLFE1ul02KxzMjBoOlIRLwSwxHAhcXFE7p+vCNns0ycSL2UVgGUzPYApj26CyA3N9cKYnFycjJz5szRu/hZdEZ3AZgU03LAFIkt02bRH91ftELI82By/f+DBw7wwfsRz4iOKqvXrGbBwoVT7cYo9BcArJRAyQRCwCP807f+AbfbrZtP04Hnnn2WLa+/NtVujEJ3AUjkKkVRmD9/wYTL8AwOoiiCv/qSTUfPpo43XxrE74/OQtfjRVcB5Ofn2wlpcwsKC7HaJjmYIyTrLpkZA0JvvuyZahdOiq6NQCUoZ7t/MYauAtDEsABmB4BiBl1fASJKAaDy3X7eesVLe1sQbYwhg4wsldu/k4zJNPaEhD0f+/lwq4/mhiBIyZxcA6vXWVm60sxYcxhCIXj4xz3MX2TikhnSLhlBNwGUlJSYfAOeZYlJSczNnatXsaPYsc3Hi0+HJ8wkJCoYx3jIqekqY0WSpYTnnxzg4w98ABiN4fWDG91B/vuJfqr2B7h2U/woEfT1arQ0BTFbAWYFMCZDHs8ywFJSUnJsEWad8Q5KtjznwWAUfP3ORFyFxnFdv2Orj48/8JGQrLDxK/HMLwlfX1kR4PmnB9j9kY85eSoXXDwzGp9ngm5tgNBwBlAkq//mhgABv6RkiWncD19K2PpmuHt53TcSWbjYhKIKFFWwcLGJr96cgBCw7c1BNG0KF56KMroJQEgingE08k73DIz/AfV0hujt1sjOUbG7Rld8jgIjWTkqA/2SjraZlYtwKvTsBZynKAoLiyMX7sx1GEnLVKg+OMTrL3g43ByiqyNEfU2QxvogWujkwhgcDB9LST/5FK20jLAwBqdvt113dGkDuFyuLDTpcLqcEc16UVT48qZEfvdgL1vf8LL1jROXzzNbBV/6cjznrBqdheT1aAC0HT423+DxB3rxDUo23Z6ILU6htSWchDLoCRFjC6hNGF1qAEXTVkN0AkB2l4G7v5fCBRdbWbDIhD3fQFy8gi1OMDQkeeaJfnbvHB12HektJCYdqwFsNoVGd5AnH+kjGJDExYfPSU49Ox4+6CVzIVYhoXiCGUDjJSFZ4bKrRtc0NZUBHr+/jy3PeVjyOROKcqw3YjCG/zeZj3121dfi6eoIUXco3A00GMLHjONrX8Y0utQAUpseGUAF841kzlEY6NPo7z2xPZCSqiAENNcHGck3NZkEN2xOIi1ToWzXEA21QRQVElOmX/ZupNDjThUEy+Pi4rA7HDoUN3F8Xklvl4aigs12YizCFq9QuMBIf5/GGy96ji4xHBcvuP6WJAxGQTAoychSMZsjE8eYjkz6FVCUmzsnBHFOlyviee9Sgrs6yECfNuqY36+xc5sPr1fyudUWjGM8xC9eE8evftrLtre8NNUHKVliQkoo2z1EMBBWxJHDIco+9bPonNENyYF+Sdmuk2/cFZ+o4Cw0jBlOnq5MWgBBTDaBhtVq0cOfU3K4Kchv7u055TmueUYuv2bsnkhWjoGb/j6JPz7WT21VgNqqYz2C1AyVz6228ObLHl57fvAEAYyEldtbQzz121MvVX/bPyeT54ydRuSkPVUsSpsMaLKxsUkS4fUGsnIMXPzXcQSGRtcAQhHMtauULB17QGeEPKeBb34/hcryIZobgggBc/MMFJWaUFVIz1JQ1BMLSEhUuOJv4ujpGm33eKw2hZy82Hn4oIMAqqur+woczt1tra3nVFVWUjQ/cotBqCp8/vLJx+lVFYqXmCheMnr/v7GqfoBVF87M8QFdfrEC+V8ADz/4kJxpU7pmOvpU2UbjY0DF7k8/Ff/5k5/OuHl9MxldXljV1dX+/Pz8jSKkvfvqli3ZFRUV8qvXXSfOW7P66FLs40Vq8LPvjm9W8XRFnrrpMKXo1mKpra2tcrlcqxQpn6x3u9f+8J57EEJgt9tx5Z/ZVq4jrFixgtdefZWujplTkyxdtnSqXRiTiPRYC5zODWh8Gfg8gqO7Jy1esoQnn34qEiZnDNd95W/Zt3cvmiKcdXV19ZG2F5E+S43b/TrwOoDD4ZhjEOICJH/q6+2NhLkZRc/wYhomk6krGvYiHvSur68/XON2/zfQ3tjYKPv7+yNtMmbp7e2lqblJAkcqKyuj8kVFbdRDwP+EQiHxwnPPRctkzPHCc8+jhTQhEa9Ey2b0hr2kdi8QevjBh7Sa6uqomY0Vqg9V8+uHH9ZABlW0e6Nld3xLWE+Crt7e9rSUZDUYDK57/bXXtKL584Xdbo+W+WnN9m3buGPzbZrH41GkFN+vaaiPWjUZ7XErUeBwPABiM8CixYs5f+35pKdnRNmN6UFHRzvbt22nvGx4U2zBAzVu910QvT3WpmTgMt/huEogfgSMbxHhmUslyG/X1Ne/EG3DUzlyLfLz8pcrSuhcCdlCiNEjMzogIUVIkSPRchAiBykzj99cWAhBUlISaenpZGSkk5aeTlJSkq6TW97533doaW4GwQsCqgCklEMCWqWUO2saGj4lir/644mh1AV9yMnJsZlV83JFYSXI8wjPZ8w5/hybzUZJaQnFJSWUlJZSXFxMYlLShOzt2b2bOzffjpSy1R8K5kdyJ/CJcNYJYCzy8/PtSlCu0oRcNTzB9RzghHFhu93OwpJiSkpLKS0txeVyoZ5mKbvqQ4e46/Y7tL6+PkUgb6qur388grcxIWYFMAYlJSUmv8dzjqaxcnjTq/OAExIeLVYrCxYsoLS0lOLSEhYWFx/dNr6psYlXt2zhmT/9SRsaGlIQPFrjdn9jCm7ltMwK4AwZDmmvBM6T4a3wVvCZqcIWi0VKKfH7/SPf6xDIH9TU1/+IKXrHn45ZAUyQdWBocjgWA6skrAJxDmCXoChQLZFvhoT4lXumrXY1yyyzzDLLLLPMCP4/KPEbrrPTq3cAAAAASUVORK5CYII=;" parent="1" vertex="1">
          <mxGeometry x="1439" y="545" width="80" height="80" as="geometry" />
        </mxCell>
        <mxCell id="pPCsq5DY9bUPXMMZWvm_-48" value="" style="shape=image;verticalLabelPosition=bottom;labelBackgroundColor=default;verticalAlign=top;aspect=fixed;imageAspect=0;image=data:image/png,iVBORw0KGgoAAAANSUhEUgAAAIAAAACACAYAAADDPmHLAAAABHNCSVQICAgIfAhkiAAAAAlwSFlzAAADsQAAA7EB9YPtSQAAABl0RVh0U29mdHdhcmUAd3d3Lmlua3NjYXBlLm9yZ5vuPBoAABFHSURBVHic7Z15mBTlnce/71vV0z3T03MwN8cMwyH3IQhBFhVxWUk0EZNV0U3QjXExuyqyajBBCZjgY1ivBTTyuG6y7rMa2eeJkLiurkHBEBA5xuGYGS6Ha2Duvo/prqp3/xgYpme6p7uqq7qK6fo8T/9R1W+976/r/fZ7v7+XoBdVa9pmECI9BuBmABUALDAAEmM42+GOulfisMNuNYR58HdF0Ob1R92rLMoHJUQni/oRAXARDJ8ySjacWV1ac/mLbgvXMDoSLetAyMqeewbCFICqSISRFxpR8izWEIkCwKXMfxoGzHwT1aGMsJ9Vo+0XAECqn2uZxhgOAqA6GxYXswTQBIkxOosyhhUwcOabaAYlRHyEorvBZ5KRkAUU3a39QQcJNIF6TgJSRG9TjMxQHgbp6qkJ17wTXOsXAABmK0FkzA8AOuh+phpYNKn7rZYAsq1eLaJOAgau/UDPFQm1gfpO62RL6lhpBJW2Fkxhp2BjYdXj59WOcOroHZg7ZSsoEVF7aj7+cuh7aicxMJLYv9gXg+m1IQVy+QD+ungv/qZ4L+YMOYRCixcsQOBfUwoAYA6GCyOG4JPiGdhsWwwfyU4pPVUFYOHCPZkPANNG70Bd4zw4vWVqJjMosVABf1u+HU+M/k8UZbnjhiNegmF1TjyA7Viavx0fT5qJZ3IfQpgoy0pVBZBj8/Rk/mVyszt1F8DacZvx7Qmdsp5hDDjsGYun6h9HS9cQjSzrpirnIv5t6nMYYz8v6znqBr65+wBurDyMJeOfxWkivz2fEf3/bBpCPu+T9Smw+HBDUQ2eHvMbTW2bXXgEW6/7Z9mZ3xv72TC2ffksbpRqEgfuw6ATACWSqvENt7WqGl9vRuWcx5tT16HA4ks5LuoCNu57DaNYk7znUk7ZYEhMvZ/EQPBu062qxdcbOxfEW9N/gTw+9cy/DHUB7zSsAw8xceBLqN4LMCIftv4VTlrzZD0jMB5fuibhkGesJjYtq/o9RmZfUD1e+9kwnqn6D6zJ+WFS4TNCADs6rsOn0lS9zeihJMuJB6u2ahb/nYd348XZ9ybVRRx0VcDVwJ0VnyGHhjSLn7qAh8J/TC6sZlaYxGVhyV7N07i1bV9S4WRXATwR4OCDcEYcso3qjQMSIiAIpWENis3qA29vV/y8L1gISeJUsSWHC+Ha/AZV4hqIinNOYHjicLIEcENRDTZNXo883oePWufikcMrISooRJ7mOrCUehAGwVqhCO+z1MSUiLmTtuGa6QHFz0fELGw/sBRfN01L2ZYKWxs4qNtVjQX1MdhYGCGSNXA4OZH+fOybPd2WRaW7sbD0C9mGjSdhLKUeAEAWGFbxHeDBZMeTTixcGDdO3aJKXKVZLlXiSYhEMA5nEwaTVQIMy26JulYySDKUCFHXOWAYQkS0MnU6JEQjMfF8BAQMLMUqq+9QeTKQbAb7Wvnv2nnQASRoa6b01rV62amQagbFjJMR7K27TZW4W7uK5D9EukUgBwaC5iTmMDJiHKDm5C1o8Fcpft7tK4E3oM6EUEtXIRiI5n+eznAewizxIpiMEIDTU44ObpzeZgAAPEIu6ryjMMlxStN09jiTG/gyxwF04JP2b2ifRtucpMKZAtCBrRfnQ1Cp0RuLzkg+trfPSipsRlQBk0kYFdQf87vzjMdRZk2rPWeCFXinaRGWDv9Ak/g3NN4Dv5jcUrGMEMAS6sFiLn436n3mwCqhOI0WARsal+BbpbtQrPK4wDFfFd5p+mbS4RMLQAqDCN2jaOfdVljplVrDG4iAhK/8AMZ54XVGRykG/VFhQjSI8zR6DlwSXSCMBzgbGGdL2vhYKKnT7iRevE4K0KRhsdyXjnA+lh1ahXdn/gxZRJ29C65ILpYdXoWIlPzvGDAk1/R/4Dq+Ai51WW5r6DsU2ggLNvdchQC8V1PeJ8x2WLC952o/gNtjpHW5wyLljYVQtRggyponSgZZRRAEWPr38R10j8cTR1fgpUmvpCwCt5CLhw49izMBeesC475l4j8LrqMGSPNgD/WcAHUdSVt6XSB4QSyEE+pM9sjlg5YbcO+B59EWLlQcx+ngUHxv/3rsd02U/Wz8EkDPLVWiuhsgXpaG4NfCiJjfNTMeem8eO+gej0VfbMTyUb/DfcM+At9nuDwefjEbm898F2+dWYyApKzqjCsAllsNKWcYaEDeIsNUYdZCsMLJqsbZySikNNbvSuiM5OPnx5bhrbN34I7yHVhYsheTHaf6jRiKoNjvmoQ/tc3G+803oyOcn1K68d8KoRBG3wsSuAAiXOlCFWe5UGDx4nRgKAQWu9h05DjBERFuf3HMCoQCqCQCQiBo7hUH42xgOcMBmkJmEQpQrnuHUE+C6e3mpcLZYDk2Ni7BxsYlcPB+lFs7UZrViQg4tHcV4GJXCYKier9n4DdNODD7iKhMbL30wQBrLHv2tcQRpwTg62QtlAuhkPIngjoPAwCYJRcsV/k8gJ54BTu8gh0n/LGrLzUwdrmoEGH4InCOkYAQgFQwIeWu5WBmUAoAhEIskN8izkTMuYAMxxRAhsNLzHirevoSy0bGWMz7esBi2GEU2xJB8Oixq8NSE00wq4AMxxRAhmMKIMPhSxx2vW1ICGMM7b7onT152VZYeWMMY3QJAjzBrqh7xbk5IMZ2FQsA4I3ib3cgJMaAPn4UrDxvGF/B3UQLIMdqMbqvYABmFZDxmALIcAatAMqsnbjGftaQ29diQYQgSLAVYNrvHO6NMVpRKvN3w/4Xa8ZtBk9E7OyYiQe/Wq1oG3u6oJ5T4M9uA6QIWHYpIqPvS9saBsMIgIOEbD4En5CTUjwEDD8Z8zb4S7twbyo6gHlFNdjZMVMNMzWBa9nVswSPBFthdx8EXzJFcXxuITfpsIYQwCTHKbw57ZeosLZjj3MKflS7GgFR2Ry+lUb6uV4rtTrVMFMzeNEd5djtoaH/heVzzyiOzxnJw5pjy/CHlhsThtW9XMzlA3h9yguosHa7cLm+8DDuG/aRzlalFwcfe9eSUgotHqyf+CpyuMSOqHQXwHPj3kBldnPUvWQMH0xQon5D1UojyOUSu8XRVQDfKfscd5Z/FnXPK9jx3xdu0ckifVBa3Q3Etpab0Bo2sIOICmsbnhv/6373Vx97GBe7SnSwSD+CohWk1+6Ez9pnoaX+24rjOxOqwJ7O5BqRugiAEgkvT3oZ+X0aax+2zsPW5vl6mGQojvpGofbCDWlJK+UqoDjLhe+UfY5xucm3Wh8ZuQVzCqO3f50LleHp+kdSNSdpCBFRPfQQqisOgyhw3DRYSKkEGG0/h/dm/BRFWW6IoFjd8GO807RowGdm5Dfg0erfRd0TGIcVR5+AV0jPzCQBw+1zN2NEaT0A4EzLRHy4+2FNHEwZHcUC4IiIlya82nO8CQcJa8dtxjF/FQ64JsR8JocL4aVJr/QM0lxm0+l74j6jBXn2tp7MB4Cqsjo4ctvh8UW3PQiAESQCD+PgSmN7Ocfmga0gto+/UCQHHr96vgwUC2BZ1e8xLf94dGREwMbJ63Hb3g0xXcmuG/96Pxfpte5r8FrjXUrNUIQ1q38302YJwtPrmgPDv3KtWEADiABYIxRr5tGUo0LUtvYJVXsw8+b4YyEnz8/AJ/seUKXEUiTr0fZzeKz63ZjfVVjb8eLEV/pNwnyrdBcW9+nyBUQbltc9qam/HKXMISEsoN39aAuAp/hOzSqILIu8cY8xww+ivEidzXWyBXC56LfS+JuqFxTvww8r/9BzXWFtw/MTXusXblXDP8l2aJAuyvps0S6ABKuBZhbVskS2AP6hsn/R39xV1K84Wjn6t5iedxwcJGyY8mK/Lt/W5vlml+8S4Yi8gaAT52eipWOUKmnLKnvH2s/h8dHRRb/AeDxYuxp3VWzHAyOu/OstVMDGyb/CR21zcV1+XdQz50JlWH3s4RTMHlyIEh/196k/cz0aP4s9kBMK2+EJKHA3G4ekBcAREf8y4dV+vmw2nb4bdd5RWOerxLS8Y7g2/1jPd8OzW/GjyuijUSRG8dTR5Wnr8l2NBEJ58Lgq05JW0lVArFZ/va8ar5/ubsELjMejR1bCFRl4LnrD6SXY61I+122iLkkJIFarX2AcVtY9FuWSrClUgifrVsTtnujR5TMZmIRVQLxW/6bT9+Cwd0y/8NvbZ+Ptc7fj/hHRhxYZuctnNCaQMMZTeaevMxDUM4tsr6cJcyNWq7/eVz3gP/n5E3+PGfkNmJJ3oueekbt8epMNKepch5tIAP/IKTvjaL04BL+VknccNaAA4rX6n6x7fMB/cphZcP9Xa/HTMf+OquxmvHdhYfq6fEIAR1uj2yFuTwA0eGXRiWjpRPvF6LN0RF8naPDKPTcNoJ72ceNKSgFe/cZrNmGJDvZImvs5jzoC4CDFbPW/1ngX6ryJ+6DOiAM/qV+etCFqwF3cCal9L757ZHqfb+rB48rYvxfA1gOlfcJ8HPUy/nzpEwX5E7iSORDLE6+1k4Ok4vhSRxzPbfGI2wicV1QTs+jfdPpuZZZpDAm7wLV90X3uu1YwBq51D0jYnTisDHwqTTQ1woI1oryJovglQJ9TuJMp+nUlnRsqVE5L4B0gkSsLQ39DK/B2RN44gAgCvwIhxX3i845r8ZfO6Zcip3im4cdJFf16waxDIA3pW/Srj1h0LZhVuV/fmHGWzwNo90ZXZiuDv2AqPOBkfZRkPgCQkWtb4paZBAzjcs+gpWsInBF5p2+ricQYznZEF7slDnvM3cGkywlE3CjkvbDzITSFiuOOS9ht3XH6Q7EbTQTAUAjwg3avB7Dkx8x8f1cEbd7opd2VRfmydgcTMQSEPWC2YsWe0pUwYHnOQNDgG5kmU9SBWQsBayE6AXQCwAADkz3TU3HCMADn1TRuABhnA7LT79BS930BJvpiCiDDMQWQ4ZgCyHD4MrskweBCECWGFne0iUOyGQqy0+tMIR4uyuAJRttXmiOBo4ZfZi6RA7XHjbPQzSTtGPqfb6I9pgAyHFMAGY4pgAzHFECGY9C5XfVxud242NwKURx4KzjHcagoL0VBfmrn8V0tZIQAOjqd2PHnPTFP9ohFXcMJzJ93PYqK1J32NSIZUQWca7qYdOYD3d7Jz124qKFFxiEjBJCXK38hp+MqcKOvBhlRBVSPrITP58eFltaEJQEhBBXlZRhVlZ6tWXpDDtQedyHuIa8mgxwnBXqtlzbJLBirpyBki952mOgDI2QL7fLZ3oCGh3mbGBSGk948y2Y6d+6IoAR6By6dCm+SEbRyIItvrq4OUQCYNW3MESIKswH8McGDJlc5DGwb47lZ06ePPQqg/4L5fYeOj6Jgt4BhGGMk/euUeyGKUnVEiBhzL1qSWHjLFo6jjXraQAgLMeA8I+TTWVOviaruDb1m6ZNPD9zKKLuqDw8gElm0cMHMj/W2Ix4ZMRJoEh9TABmOKYAMxxRAhmMKIMMxBZDhmALIcAy7HmBXQ4PDEmBLJdEY27+UQjm6dFdDw+5548fLc/yXJgw3EMQYozWHjn+fAb8CSLne9qhEOwN++fWxsZvuvttYBxQZSgD7a49/gwCvApijty0aUUMIWTFj6tidehtyGUMI4MvDJ0dwkrgOIN+HQWzSmA8kguV9x+X1QNeXXVtbaxdgewogKwHoOvGkA2ECvBEOkmfnzBnrSRxcG3QRAGOM1Bw6/oNBVs8rRdf2QdoFkAH1vFJ0aR+kTQAZWM8rJa3tA80zIsPreaWkrX2g+UBQpx87mRSYqXU6g4wsAI9RSucDmKZlQpoLICJEvLi6B/N0gxCpS+s0tJ8LYND8RwxWGJhT6zTMySBjo7kHN1MAGY4pgAxHcwEwOZ4ZTKJIx7vTXAAEpC5xKJNYEEaOap2G5gKQssLrQPA/AOKfN2/SlwgBPpCs4ee1Tuj/Ad559no3oIdFAAAAAElFTkSuQmCC;" parent="1" vertex="1">
          <mxGeometry x="1445.7" y="365" width="70" height="70" as="geometry" />
        </mxCell>
        <mxCell id="J-Wc4HAiA42fB05gStyE-1" value="" style="rounded=0;whiteSpace=wrap;html=1;fillColor=none;strokeColor=none;" vertex="1" parent="1">
          <mxGeometry width="1640" height="1150" as="geometry" />
        </mxCell>
      </root>
    </mxGraphModel>
  </diagram>
</mxfile>
